<svg id="Layer_1" enable-background="new 0 0 512 512" height="512" viewBox="0 0 512 512" width="512" xmlns="http://www.w3.org/2000/svg"><g><circle cx="256" cy="256" fill="#00ab5e" r="256"/><path d="m256 0v512c141.385 0 256-114.615 256-256s-114.615-256-256-256z" fill="#007840"/><g fill="#5bc980"><path d="m368.596 302.59 42.753 11.492c-12.471 33.218-35.271 61.62-65.053 80.923l-15.083-26.207c7.973-5.292 15.417-11.428 22.151-18.355 5.783-5.95 5.664-15.476-.267-21.279-5.931-5.801-15.428-5.682-21.212.267-19.824 20.398-47.485 32.096-75.885 32.096-49.366 0-91.783-33.657-103.151-81.847-1.907-8.086-9.989-13.09-18.051-11.178-8.062 1.914-13.05 10.021-11.143 18.108 7.021 29.766 24.059 56.609 47.974 75.585s53.878 29.426 84.371 29.426c16.656 0 33.111-3.145 48.501-9.05l15.204 26.417c-7.772 3.225-15.868 5.899-24.252 7.956-8.047 1.975-12.974 10.12-11.005 18.192 1.676 6.871 7.808 11.475 14.559 11.475 1.18 0 2.38-.141 3.577-.434 30.135-7.397 58.141-22.017 81.504-42.216l21.209 21.276c-39.846 35.247-92.121 56.668-149.297 56.668-63.993 0-125.604-27.868-168.161-75.295l27.418-14.587c19.967 20.648 44.376 36.789 71.231 47.007 1.752.667 3.549.982 5.317.982 6.052 0 11.754-3.702 14.027-9.715 2.938-7.771-.959-16.458-8.705-19.406-25.942-9.871-49.192-26.265-67.235-47.41-.088-.103-.186-.192-.276-.292-4.611-5.124-12.328-6.396-18.356-3.105-.011.006-.022.012-.034.018 0 0-53.736 28.588-53.743 28.592-7.964 4.237-10.407 15.062-4.947 22.348.02.027.036.055.056.082 23.764 31.195 54.87 56.88 89.954 74.279 35.085 17.4 74.316 26.597 113.454 26.597 68.38 0 132.667-26.713 181.02-75.217 48.351-48.504 74.98-112.994 74.98-181.589 0-21.443-2.686-42.849-7.981-63.625-2.269-8.9-12.629-13.789-20.92-9.878-.183.087-.371.171-.551.265 0 0-54.871 28.717-54.998 28.784-1.796.94-3.393 2.213-4.685 3.779-.695.843-1.296 1.762-1.794 2.733-.5.975-.896 2.002-1.18 3.059-.285 1.057-.458 2.144-.514 3.237-.056 1.101.003 2.24.203 3.324 1.605 9.326 2.419 18.853 2.419 28.32 0 10.172-.918 20.159-2.668 29.879l-29.135-7.831c1.189-7.281 1.803-14.652 1.803-22.048 0-19.504-4.06-38.404-12.065-56.177-3.411-7.573-12.295-10.938-19.846-7.516-7.549 3.422-10.903 12.336-7.492 19.909 6.239 13.852 9.403 28.584 9.403 43.785 0 9.734-1.332 19.42-3.959 28.789 0 0-5.816 13.34 10.556 18.608zm57.855 101.308-21.202-21.267c1.683-1.982 3.331-3.996 4.936-6.048 26.965-34.466 42.06-77.577 41.815-121.389-.087-15.462.027-8.328-1.313-22.618l28.197-14.757c2.056 12.344 3.116 24.851 3.116 37.375 0 56.846-20.969 108.868-55.549 148.704z"/><path d="m282.408 291.745c-6.708 4.877-8.204 14.286-3.343 21.014s14.241 8.23 20.948 3.353c19.403-14.107 30.987-36.88 30.987-60.918 0-41.486-33.645-75.237-75-75.237s-75 33.751-75 75.237c0 27.742 15.132 53.135 39.491 66.27 2.26 1.218 4.691 1.796 7.089 1.796 5.344 0 10.518-2.873 13.226-7.926 3.922-7.32 1.187-16.443-6.11-20.378-14.616-7.881-23.696-23.117-23.696-39.762 0-24.892 20.187-45.142 45-45.142s45 20.251 45 45.142c0 14.422-6.95 28.086-18.592 36.551z"/><path d="m48.742 345.59c-12.436-28.694-18.742-59.108-18.742-90.396 0-108.781 77.118-201.527 181.979-222.365v30.771c-35.553 8.227-68.154 26.287-94.028 52.031-.053.052-.111.095-.163.148-.035.035-.063.073-.098.108-3.811 3.806-7.477 7.776-10.982 11.909-30.12 35.52-46.708 80.764-46.708 127.398 0 16.35 2.039 32.673 6.061 48.516 1.703 6.709 8.103 11.425 14.968 11.294 7.55-.145 13.918-6.263 14.523-13.795.133-1.651-.012-3.32-.419-4.924-3.406-13.419-5.133-27.244-5.133-41.091 0-40.648 14.382-78.114 38.704-107.185l21.476 21.543c-9.563 11.869-17.247 25.453-22.483 40.393-2.748 7.84 1.361 16.43 9.176 19.186 1.646.58 3.325.856 4.975.856 6.188 0 11.982-3.872 14.151-10.06 14.897-42.508 55.084-71.067 100-71.067 18.021 0 35.866 4.652 51.607 13.453 2.003 1.12 4.287 1.758 6.575 1.873 2.312.116 4.625-.32 6.743-1.253 2.055-.905 3.923-2.266 5.381-3.979l30.739-35.87c9.764 7.513 18.73 16.138 26.691 25.761 2.967 3.585 7.241 5.437 11.55 5.437 3.376 0 6.771-1.138 9.572-3.469 6.374-5.308 7.253-14.794 1.962-21.189-27.166-32.833-64.216-55.841-105.376-65.686v-30.791c62.931 13.041 118.379 52.94 150.562 109.189 2.773 4.847 7.826 7.559 13.023 7.559 2.532 0 5.1-.644 7.453-1.999 7.185-4.137 9.666-13.333 5.543-20.541-19.588-34.235-47.245-63.907-79.981-85.81s-70.669-36.114-109.703-41.101c-.055-.007-.109-.006-.164-.013-7.751-.915-15.138 4.733-16.5 12.394-.149.84-.231 1.692-.231 2.545v58.407c0 7.608-2.445 13.616 18.622 18.445 14.442 3.039 28.329 7.981 41.326 14.629l-20.258 23.64c-17.314-7.694-36.146-11.727-55.135-11.727-31.395 0-60.974 10.894-84.502 29.613l-21.504-21.571c22.098-18.318 49.196-31.062 79.39-35.982 7.261-1.183 12.595-7.473 12.595-14.852 0 0 0-60.714 0-60.735 0-8.915-7.991-16.057-16.812-14.981-128.366 15.623-225.167 125.222-225.167 254.938 0 35.442 7.143 69.892 21.23 102.395 7.671 17.698 35.265 5.888 27.512-11.999z"/></g><g fill="#00ab5e"><path d="m478.027 127.355c-19.588-34.235-47.245-63.907-79.981-85.81s-70.672-36.114-109.706-41.101c-.055-.007-.109-.006-.164-.013-7.751-.915-15.138 4.733-16.5 12.394-.149.84-.231 1.692-.231 2.545v58.407c0 7.608-2.445 13.616 18.622 18.445 14.442 3.039 28.329 7.981 41.326 14.629l-20.258 23.64c-17.314-7.694-36.146-11.727-55.135-11.727v30.094c18.021 0 35.866 4.652 51.607 13.453 2.003 1.12 4.287 1.758 6.575 1.873 2.312.116 4.625-.32 6.743-1.253 2.055-.905 3.923-2.266 5.381-3.979l30.739-35.87c9.764 7.513 18.73 16.138 26.691 25.761 2.967 3.585 7.241 5.438 11.55 5.438 3.376 0 6.771-1.138 9.572-3.469 6.374-5.308 7.253-14.794 1.962-21.189-27.166-32.833-64.216-55.841-105.376-65.686v-30.79c62.931 13.042 118.379 52.94 150.562 109.189 2.773 4.847 7.826 7.559 13.023 7.559 2.532 0 5.1-.644 7.453-1.999 7.187-4.136 9.668-13.333 5.545-20.541z"/><path d="m256 179.957v30.095c24.813 0 45 20.251 45 45.142 0 14.423-6.95 28.087-18.592 36.551-6.708 4.877-8.204 14.286-3.343 21.014 4.861 6.729 14.241 8.23 20.948 3.353 19.403-14.107 30.987-36.88 30.987-60.918 0-41.486-33.645-75.237-75-75.237z"/><path d="m368.597 302.593 42.753 11.492c-12.471 33.218-35.271 61.62-65.053 80.923l-15.083-26.207c7.973-5.292 15.417-11.428 22.151-18.355 5.783-5.95 5.664-15.476-.267-21.279-5.931-5.801-15.428-5.682-21.212.268-19.825 20.394-47.486 32.092-75.886 32.092v30.094c16.656 0 33.111-3.145 48.501-9.05l15.204 26.417c-7.772 3.225-15.868 5.898-24.252 7.956-8.047 1.975-12.974 10.12-11.005 18.192 1.676 6.871 7.808 11.474 14.559 11.474 1.18 0 2.38-.141 3.577-.434 30.135-7.397 58.141-22.017 81.504-42.216l21.209 21.276c-39.846 35.247-92.121 56.668-149.297 56.668v30.096c68.38 0 132.667-26.713 181.02-75.217 48.351-48.504 74.98-112.994 74.98-181.589 0-21.443-2.686-42.849-7.981-63.625-2.269-8.9-12.629-13.789-20.92-9.878-.183.087-.371.171-.551.265 0 0-54.871 28.717-54.998 28.784-1.796.94-3.393 2.213-4.685 3.78-.694.843-1.296 1.761-1.794 2.733-.5.975-.896 2.002-1.18 3.059-.285 1.057-.458 2.144-.514 3.237-.056 1.101.004 2.24.203 3.324 1.605 9.326 2.419 18.853 2.419 28.32 0 10.172-.918 20.159-2.668 29.879l-29.135-7.831c1.189-7.281 1.803-14.652 1.803-22.047 0-19.504-4.06-38.404-12.065-56.177-3.411-7.573-12.295-10.938-19.846-7.516-7.549 3.422-10.903 12.336-7.492 19.909 6.239 13.852 9.403 28.584 9.403 43.785 0 5.089-.365 10.178-1.091 15.214-.361 2.504-.811 4.996-1.349 7.468-.536 2.461-1.333 4.872-1.809 7.344 0 0-3.044 13.099 10.847 17.372zm57.854 101.305-21.202-21.268c1.683-1.982 3.331-3.996 4.936-6.048 26.965-34.465 41.815-77.575 41.815-121.388 0-7.539-.448-15.109-1.313-22.619l28.197-14.757c2.056 12.344 3.116 24.851 3.116 37.375 0 56.847-20.969 108.869-55.549 148.705z"/></g></g></svg>